<svg width="1096.95" height="112.802" viewBox="0 0 1096.95 112.802" xmlns="http://www.w3.org/2000/svg">
	<g id="svgGroup" stroke-linecap="round" fill-rule="evenodd" font-size="9pt" stroke="#000" stroke-width="0.25mm" fill="none" style="stroke:#000;stroke-width:0.25mm;fill:none">
		<path d="M 0 110.7 L 0 6.3 Q 7.05 5.55 13.8 5.175 Q 20.55 4.8 29.25 4.8 A 72.912 72.912 0 0 1 40.266 5.59 Q 47.01 6.621 52.575 9 Q 62.4 13.2 68.775 20.55 Q 75.15 27.9 78.225 37.575 A 66.384 66.384 0 0 1 81.183 54.068 A 77.259 77.259 0 0 1 81.3 58.35 A 67.963 67.963 0 0 1 79.078 75.896 A 62.703 62.703 0 0 1 78.15 79.05 Q 75 88.8 68.475 96.225 Q 61.95 103.65 51.825 107.925 A 51.535 51.535 0 0 1 40.706 111.131 Q 35.502 112.05 29.563 112.179 A 90.289 90.289 0 0 1 27.6 112.2 A 280.47 280.47 0 0 1 21.493 112.137 Q 18.472 112.071 15.783 111.936 A 152.251 152.251 0 0 1 12.675 111.75 Q 6.3 111.3 0 110.7 Z M 14.25 17.85 L 14.25 99 A 65.35 65.35 0 0 0 19.144 99.506 A 73.924 73.924 0 0 0 20.85 99.6 Q 24.3 99.75 28.05 99.75 Q 41.55 99.75 50.1 94.5 Q 58.65 89.25 62.7 79.875 A 48.437 48.437 0 0 0 66.082 67.764 A 63.753 63.753 0 0 0 66.75 58.35 A 50.858 50.858 0 0 0 62.7 38.1 Q 58.65 28.65 50.25 22.875 Q 42.385 17.468 30.444 17.123 A 57.012 57.012 0 0 0 28.8 17.1 A 147.347 147.347 0 0 0 24.638 17.156 A 111.296 111.296 0 0 0 20.85 17.325 Q 17.25 17.55 14.25 17.85 Z" id="0" vector-effect="non-scaling-stroke"/>
		<path d="M 163.95 77.55 L 109.35 77.55 A 36.132 36.132 0 0 0 111.059 85.087 Q 113.063 90.806 117 94.65 Q 123.3 100.8 133.65 100.8 A 55.094 55.094 0 0 0 140.063 100.444 A 41.363 41.363 0 0 0 145.8 99.375 Q 151.2 97.95 156.15 95.7 L 159.3 107.25 A 61.155 61.155 0 0 1 152.798 109.689 A 77.795 77.795 0 0 1 147.15 111.225 A 58.371 58.371 0 0 1 139.512 112.454 A 78.038 78.038 0 0 1 132 112.8 A 42.477 42.477 0 0 1 120.381 111.292 A 31.662 31.662 0 0 1 105.375 102.075 A 35.282 35.282 0 0 1 97.567 87.765 Q 96.054 82.517 95.676 76.273 A 70.687 70.687 0 0 1 95.55 72 A 53.038 53.038 0 0 1 96.799 60.267 A 43.26 43.26 0 0 1 99.975 51.075 A 36.963 36.963 0 0 1 107.499 40.452 A 34.331 34.331 0 0 1 112.35 36.525 Q 120.3 31.2 130.8 31.2 A 42.83 42.83 0 0 1 139.005 31.944 Q 144.021 32.923 148.026 35.191 A 25.82 25.82 0 0 1 149.475 36.075 Q 156.9 40.95 160.65 49.2 A 42.278 42.278 0 0 1 164.289 63.996 A 50.152 50.152 0 0 1 164.4 67.35 A 112.805 112.805 0 0 1 163.964 77.395 A 103.961 103.961 0 0 1 163.95 77.55 Z M 109.2 66.6 L 151.95 66.6 A 36.533 36.533 0 0 0 151.344 59.722 Q 150.6 55.846 148.944 52.81 A 18.633 18.633 0 0 0 146.25 49.05 Q 140.55 42.9 130.5 42.9 A 20.37 20.37 0 0 0 122.832 44.302 A 18.786 18.786 0 0 0 116.1 48.975 Q 110.4 55.05 109.2 66.6 Z" id="1" vector-effect="non-scaling-stroke"/>
		<path d="M 217.35 111 L 203.25 111 L 171.9 36.6 L 184.2 31.5 L 210.75 95.7 L 237.3 31.5 L 248.85 36.6 L 217.35 111 Z" id="2" vector-effect="non-scaling-stroke"/>
		<path d="M 251.1 102.15 L 258.3 90.15 Q 263.7 94.65 270.45 97.5 A 35.023 35.023 0 0 0 278.506 99.765 A 48.177 48.177 0 0 0 286.2 100.35 A 41.971 41.971 0 0 0 293.021 99.83 Q 296.655 99.231 299.597 97.94 A 20.551 20.551 0 0 0 303.3 95.85 Q 309.372 91.513 309.592 84.249 A 18.174 18.174 0 0 0 309.6 83.7 A 17.909 17.909 0 0 0 309.094 79.361 A 14.725 14.725 0 0 0 307.8 75.975 A 12.145 12.145 0 0 0 305.999 73.491 Q 304.095 71.42 300.876 69.407 A 38.715 38.715 0 0 0 300.825 69.375 Q 295.65 66.15 285.6 62.4 A 135.619 135.619 0 0 1 278.689 59.504 Q 272.583 56.73 268.35 53.925 Q 262.379 49.967 259.557 44.981 A 19.954 19.954 0 0 1 259.125 44.175 A 25 25 0 0 1 256.844 37.168 A 34.392 34.392 0 0 1 256.35 31.2 Q 256.35 23.7 260.475 17.625 A 25.767 25.767 0 0 1 267.155 10.969 A 35.078 35.078 0 0 1 272.625 7.875 Q 279.896 4.545 289.938 4.232 A 67.842 67.842 0 0 1 292.05 4.2 A 79.343 79.343 0 0 1 300.881 4.669 A 59.157 59.157 0 0 1 308.775 6.075 Q 316.2 7.95 323.25 11.4 L 318 23.55 A 47.243 47.243 0 0 0 311.811 20.522 A 62.529 62.529 0 0 0 306.075 18.525 Q 299.25 16.5 291.75 16.5 A 40.78 40.78 0 0 0 285.705 16.92 Q 282.507 17.4 279.9 18.43 A 18.925 18.925 0 0 0 276.15 20.4 A 14.852 14.852 0 0 0 272.905 23.347 A 11.039 11.039 0 0 0 270.45 30.45 A 15.697 15.697 0 0 0 270.889 34.233 A 12.843 12.843 0 0 0 272.1 37.35 Q 273.683 40.229 278.237 42.97 A 35.252 35.252 0 0 0 278.625 43.2 Q 282.697 45.58 290.169 48.484 A 195.022 195.022 0 0 0 293.25 49.65 A 121.843 121.843 0 0 1 300.718 52.694 Q 307.296 55.65 311.775 58.8 A 39.065 39.065 0 0 1 316.335 62.516 Q 318.705 64.786 320.29 67.219 A 21.345 21.345 0 0 1 321.45 69.225 A 26.368 26.368 0 0 1 324.062 78.019 A 33.233 33.233 0 0 1 324.3 82.05 A 32.565 32.565 0 0 1 323.299 90.301 A 25.657 25.657 0 0 1 319.425 98.7 A 29.427 29.427 0 0 1 309.028 107.734 A 36.535 36.535 0 0 1 305.925 109.2 A 45.782 45.782 0 0 1 294.81 112.206 A 60.041 60.041 0 0 1 286.2 112.8 A 71.05 71.05 0 0 1 274.537 111.881 A 57.073 57.073 0 0 1 266.25 109.875 Q 257.25 106.95 251.1 102.15 Z" id="3" vector-effect="non-scaling-stroke"/>
		<path d="M 363.692 110.791 A 40.821 40.821 0 0 0 376.65 112.8 A 46.089 46.089 0 0 0 380.062 112.675 A 37.886 37.886 0 0 0 396.525 107.7 Q 405.3 102.6 410.4 93.375 A 39.383 39.383 0 0 0 414.379 82.663 A 51.276 51.276 0 0 0 415.5 71.7 A 51.813 51.813 0 0 0 414.772 62.837 A 38.692 38.692 0 0 0 410.325 50.175 Q 405.15 41.1 396.375 36.15 A 37.273 37.273 0 0 0 389.413 33.109 A 41.607 41.607 0 0 0 376.65 31.2 A 46.987 46.987 0 0 0 374.28 31.259 A 39.254 39.254 0 0 0 356.85 36.15 Q 348 41.1 342.9 50.25 A 39.034 39.034 0 0 0 338.776 61.635 A 52.509 52.509 0 0 0 337.8 72 A 52.23 52.23 0 0 0 338.197 78.53 A 41.176 41.176 0 0 0 342.825 93.225 Q 347.85 102.45 356.7 107.625 A 36.839 36.839 0 0 0 363.692 110.791 Z M 376.65 100.8 A 28.112 28.112 0 0 0 384.489 99.764 A 21.001 21.001 0 0 0 395.1 92.775 A 28.204 28.204 0 0 0 400.829 80.64 A 40.657 40.657 0 0 0 401.7 72 A 32.064 32.064 0 0 0 399.863 61.071 A 30.021 30.021 0 0 0 398.4 57.675 A 28.796 28.796 0 0 0 392.142 49.322 A 27.256 27.256 0 0 0 389.475 47.175 Q 383.85 43.2 376.65 43.2 Q 364.8 43.2 358.2 51 A 26.817 26.817 0 0 0 352.689 62.06 Q 351.702 66.047 351.61 70.725 A 49.304 49.304 0 0 0 351.6 71.7 Q 351.6 79.5 354.9 86.175 A 29.156 29.156 0 0 0 360.195 93.735 A 26.441 26.441 0 0 0 363.825 96.825 Q 369.45 100.8 376.65 100.8 Z" id="4" vector-effect="non-scaling-stroke"/>
		<path d="M 487.35 35.85 L 483.3 47.25 A 45.633 45.633 0 0 0 478.943 45.336 A 35.129 35.129 0 0 0 475.275 44.175 A 30.814 30.814 0 0 0 470.711 43.387 A 39.532 39.532 0 0 0 466.8 43.2 Q 456.3 43.2 449.175 50.775 A 25.103 25.103 0 0 0 443.226 61.806 Q 442.197 65.718 442.068 70.359 A 48.411 48.411 0 0 0 442.05 71.7 A 37.788 37.788 0 0 0 443.108 80.79 A 32.175 32.175 0 0 0 445.05 86.4 Q 448.05 93 453.375 96.9 A 20.195 20.195 0 0 0 464.129 100.739 A 25.359 25.359 0 0 0 465.9 100.8 Q 470.648 100.8 474.251 99.915 A 22.62 22.62 0 0 0 475.65 99.525 A 47.396 47.396 0 0 0 479.85 97.969 Q 482.008 97.057 484.314 95.869 A 75.435 75.435 0 0 0 484.35 95.85 L 488.55 107.25 Q 483.9 109.8 478.125 111.3 Q 472.35 112.8 465 112.8 A 40.205 40.205 0 0 1 454.442 111.466 A 33.112 33.112 0 0 1 445.575 107.625 Q 437.25 102.45 432.75 93.225 A 44.043 44.043 0 0 1 428.794 80.008 A 57.031 57.031 0 0 1 428.25 72 A 48.055 48.055 0 0 1 430.22 58.074 A 43.197 43.197 0 0 1 432.825 51.45 Q 437.4 42.15 445.95 36.675 A 34.601 34.601 0 0 1 460.452 31.544 A 44.413 44.413 0 0 1 466.05 31.2 A 61.963 61.963 0 0 1 471.524 31.43 Q 474.329 31.679 476.78 32.198 A 35.955 35.955 0 0 1 477.675 32.4 Q 482.7 33.6 487.35 35.85 Z" id="5" vector-effect="non-scaling-stroke"/>
		<path d="M 517.8 111 L 504.3 111 L 504.3 33 L 517.8 33 L 517.8 111 Z M 504.506 16.932 A 8.959 8.959 0 0 0 511.05 19.65 Q 515.4 19.65 517.95 17.025 A 8.665 8.665 0 0 0 520.087 13.325 A 11.266 11.266 0 0 0 520.5 10.2 A 10.887 10.887 0 0 0 520.499 10.078 A 9.091 9.091 0 0 0 517.725 3.525 Q 514.95 0.75 511.05 0.75 A 12.396 12.396 0 0 0 508.566 0.987 A 8.492 8.492 0 0 0 504.15 3.3 Q 501.6 5.85 501.6 10.2 A 8.987 8.987 0 0 0 502.338 13.828 A 9.965 9.965 0 0 0 504.375 16.8 A 11.203 11.203 0 0 0 504.506 16.932 Z" id="6" vector-effect="non-scaling-stroke"/>
		<path d="M 595.2 39.3 L 595.2 33 L 607.5 33 L 607.5 92.1 A 18.225 18.225 0 0 0 607.652 94.554 Q 608.037 97.376 609.394 98.806 A 4.448 4.448 0 0 0 610.275 99.525 Q 613.05 101.25 616.35 101.25 L 613.5 111.75 Q 599.455 111.75 596.255 100.62 A 20.385 20.385 0 0 1 596.1 100.05 A 31.961 31.961 0 0 1 591.436 105.189 A 42.747 42.747 0 0 1 586.725 108.825 A 22.392 22.392 0 0 1 579.295 111.98 Q 575.805 112.8 571.65 112.8 Q 561.9 112.8 553.95 107.85 A 34.42 34.42 0 0 1 542.83 96.56 A 41.884 41.884 0 0 1 541.275 93.825 Q 536.55 84.75 536.55 72.45 A 49.713 49.713 0 0 1 538.045 60.047 A 41.952 41.952 0 0 1 541.275 51.45 Q 546 42.15 554.325 36.675 A 33.446 33.446 0 0 1 571.117 31.265 A 41.082 41.082 0 0 1 573.45 31.2 A 33.876 33.876 0 0 1 580.64 31.936 A 28.055 28.055 0 0 1 585.675 33.525 A 39.003 39.003 0 0 1 592.105 36.966 A 33.154 33.154 0 0 1 595.2 39.3 Z M 594 91.05 L 594 49.2 Q 589.95 46.35 585.075 44.625 Q 580.2 42.9 574.8 42.9 A 23.887 23.887 0 0 0 567.343 44.031 A 21.035 21.035 0 0 0 562.125 46.575 A 24.451 24.451 0 0 0 554.596 54.711 A 29.944 29.944 0 0 0 553.5 56.775 A 30.995 30.995 0 0 0 550.87 65.29 A 41.517 41.517 0 0 0 550.35 72 Q 550.35 80.4 553.5 86.925 A 26.403 26.403 0 0 0 558.158 93.744 A 23.545 23.545 0 0 0 562.2 97.125 Q 567.75 100.8 574.65 100.8 Q 580.35 100.8 585.45 98.025 A 29.176 29.176 0 0 0 592.53 92.697 A 27.106 27.106 0 0 0 594 91.05 Z" id="7" vector-effect="non-scaling-stroke"/>
		<path d="M 633.6 86.55 L 633.6 0 L 647.1 0 L 647.1 85.2 A 30.966 30.966 0 0 0 647.382 89.532 Q 647.685 91.674 648.315 93.409 A 11.96 11.96 0 0 0 650.475 97.2 A 11.045 11.045 0 0 0 657.351 100.913 A 16.086 16.086 0 0 0 659.85 101.1 Q 662.7 101.1 665.475 100.425 Q 668.25 99.75 670.2 98.85 L 673.5 109.8 A 27.226 27.226 0 0 1 671.096 110.725 Q 669.185 111.366 666.825 111.9 A 35.725 35.725 0 0 1 662.092 112.628 A 45.77 45.77 0 0 1 658.05 112.8 Q 651.15 112.8 645.6 110.175 A 19.024 19.024 0 0 1 637.613 103.027 A 23.784 23.784 0 0 1 636.825 101.7 Q 633.6 95.85 633.6 86.55 Z" id="8" vector-effect="non-scaling-stroke"/>
		<path d="M 701.25 111 L 687.75 111 L 687.75 6 L 707.7 6 L 736.8 72.45 L 765.45 6 L 785.85 6 L 785.85 111 L 771.6 111 L 771.6 24.15 L 743.55 87.3 L 729.45 87.3 L 701.25 24.15 L 701.25 111 Z" id="9" vector-effect="non-scaling-stroke"/>
		<path d="M 874.5 77.55 L 819.9 77.55 A 36.132 36.132 0 0 0 821.609 85.087 Q 823.613 90.806 827.55 94.65 Q 833.85 100.8 844.2 100.8 A 55.094 55.094 0 0 0 850.613 100.444 A 41.363 41.363 0 0 0 856.35 99.375 Q 861.75 97.95 866.7 95.7 L 869.85 107.25 A 61.155 61.155 0 0 1 863.348 109.689 A 77.795 77.795 0 0 1 857.7 111.225 A 58.371 58.371 0 0 1 850.062 112.454 A 78.038 78.038 0 0 1 842.55 112.8 A 42.477 42.477 0 0 1 830.931 111.292 A 31.662 31.662 0 0 1 815.925 102.075 A 35.282 35.282 0 0 1 808.117 87.765 Q 806.604 82.517 806.226 76.273 A 70.687 70.687 0 0 1 806.1 72 A 53.038 53.038 0 0 1 807.349 60.267 A 43.26 43.26 0 0 1 810.525 51.075 A 36.963 36.963 0 0 1 818.049 40.452 A 34.331 34.331 0 0 1 822.9 36.525 Q 830.85 31.2 841.35 31.2 A 42.83 42.83 0 0 1 849.555 31.944 Q 854.571 32.923 858.576 35.191 A 25.82 25.82 0 0 1 860.025 36.075 Q 867.45 40.95 871.2 49.2 A 42.278 42.278 0 0 1 874.839 63.996 A 50.152 50.152 0 0 1 874.95 67.35 A 112.805 112.805 0 0 1 874.514 77.395 A 103.961 103.961 0 0 1 874.5 77.55 Z M 819.75 66.6 L 862.5 66.6 A 36.533 36.533 0 0 0 861.894 59.722 Q 861.15 55.846 859.494 52.81 A 18.633 18.633 0 0 0 856.8 49.05 Q 851.1 42.9 841.05 42.9 A 20.37 20.37 0 0 0 833.382 44.302 A 18.786 18.786 0 0 0 826.65 48.975 Q 820.95 55.05 819.75 66.6 Z" id="10" vector-effect="non-scaling-stroke"/>
		<path d="M 944.55 40.8 L 944.55 0 L 958.05 0 L 958.05 92.1 A 18.225 18.225 0 0 0 958.202 94.554 Q 958.587 97.376 959.944 98.806 A 4.448 4.448 0 0 0 960.825 99.525 Q 963.6 101.25 966.9 101.25 L 964.05 111.75 A 26.78 26.78 0 0 1 957.664 111.049 Q 949.019 108.922 946.65 100.35 A 29.229 29.229 0 0 1 942.405 105.077 Q 940.204 107.071 937.425 108.9 Q 931.83 112.583 923.492 112.788 A 40.375 40.375 0 0 1 922.5 112.8 Q 912.9 112.8 904.95 107.85 Q 897 102.9 892.35 93.825 A 41.299 41.299 0 0 1 888.467 81.911 A 55.831 55.831 0 0 1 887.7 72.45 A 50.91 50.91 0 0 1 889.034 60.579 A 41.944 41.944 0 0 1 892.425 51.3 A 40.936 40.936 0 0 1 899.353 41.414 A 36.279 36.279 0 0 1 905.025 36.6 Q 912.9 31.2 922.35 31.2 A 32.463 32.463 0 0 1 928.759 31.803 A 23.913 23.913 0 0 1 935.775 34.35 A 51.515 51.515 0 0 1 939.646 36.734 Q 941.48 37.986 942.937 39.261 A 24.885 24.885 0 0 1 944.55 40.8 Z M 944.55 91.35 L 944.55 52.65 Q 941.987 49.412 937.604 46.599 A 42.21 42.21 0 0 0 936.6 45.975 Q 931.5 42.9 925.35 42.9 A 22.419 22.419 0 0 0 917.916 44.1 A 20.077 20.077 0 0 0 912.75 46.8 Q 907.35 50.7 904.425 57.225 A 33.285 33.285 0 0 0 901.815 66.772 A 42.17 42.17 0 0 0 901.5 72 A 37.135 37.135 0 0 0 902.389 80.279 A 30.491 30.491 0 0 0 904.65 86.775 A 27.307 27.307 0 0 0 909.21 93.545 A 24.183 24.183 0 0 0 913.275 97.05 A 21.145 21.145 0 0 0 925.5 100.8 Q 931.05 100.8 936.075 98.175 Q 941.1 95.55 944.55 91.35 Z" id="11" vector-effect="non-scaling-stroke"/>
		<path d="M 998.4 111 L 984.9 111 L 984.9 33 L 998.4 33 L 998.4 111 Z M 985.106 16.932 A 8.959 8.959 0 0 0 991.65 19.65 Q 996 19.65 998.55 17.025 A 8.665 8.665 0 0 0 1000.687 13.325 A 11.266 11.266 0 0 0 1001.1 10.2 A 10.887 10.887 0 0 0 1001.099 10.078 A 9.091 9.091 0 0 0 998.325 3.525 Q 995.55 0.75 991.65 0.75 A 12.396 12.396 0 0 0 989.166 0.987 A 8.492 8.492 0 0 0 984.75 3.3 Q 982.2 5.85 982.2 10.2 A 8.987 8.987 0 0 0 982.938 13.828 A 9.965 9.965 0 0 0 984.975 16.8 A 11.203 11.203 0 0 0 985.106 16.932 Z" id="12" vector-effect="non-scaling-stroke"/>
		<path d="M 1075.8 39.3 L 1075.8 33 L 1088.1 33 L 1088.1 92.1 A 18.225 18.225 0 0 0 1088.252 94.554 Q 1088.637 97.376 1089.994 98.806 A 4.448 4.448 0 0 0 1090.875 99.525 Q 1093.65 101.25 1096.95 101.25 L 1094.1 111.75 Q 1080.055 111.75 1076.855 100.62 A 20.385 20.385 0 0 1 1076.7 100.05 A 31.961 31.961 0 0 1 1072.036 105.189 A 42.747 42.747 0 0 1 1067.325 108.825 A 22.392 22.392 0 0 1 1059.895 111.98 Q 1056.405 112.8 1052.25 112.8 Q 1042.5 112.8 1034.55 107.85 A 34.42 34.42 0 0 1 1023.43 96.56 A 41.884 41.884 0 0 1 1021.875 93.825 Q 1017.15 84.75 1017.15 72.45 A 49.713 49.713 0 0 1 1018.645 60.047 A 41.952 41.952 0 0 1 1021.875 51.45 Q 1026.6 42.15 1034.925 36.675 A 33.446 33.446 0 0 1 1051.717 31.265 A 41.082 41.082 0 0 1 1054.05 31.2 A 33.876 33.876 0 0 1 1061.24 31.936 A 28.055 28.055 0 0 1 1066.275 33.525 A 39.003 39.003 0 0 1 1072.705 36.966 A 33.154 33.154 0 0 1 1075.8 39.3 Z M 1074.6 91.05 L 1074.6 49.2 Q 1070.55 46.35 1065.675 44.625 Q 1060.8 42.9 1055.4 42.9 A 23.887 23.887 0 0 0 1047.943 44.031 A 21.035 21.035 0 0 0 1042.725 46.575 A 24.451 24.451 0 0 0 1035.196 54.711 A 29.944 29.944 0 0 0 1034.1 56.775 A 30.995 30.995 0 0 0 1031.47 65.29 A 41.517 41.517 0 0 0 1030.95 72 Q 1030.95 80.4 1034.1 86.925 A 26.403 26.403 0 0 0 1038.758 93.744 A 23.545 23.545 0 0 0 1042.8 97.125 Q 1048.35 100.8 1055.25 100.8 Q 1060.95 100.8 1066.05 98.025 A 29.176 29.176 0 0 0 1073.13 92.697 A 27.106 27.106 0 0 0 1074.6 91.05 Z" id="13" vector-effect="non-scaling-stroke"/>
	</g>
</svg>